<?xml version="1.0" encoding="UTF-8" standalone="no"?>
<!-- Generator: Adobe Illustrator 19.0.0, SVG Export Plug-In . SVG Version: 6.00 Build 0)  -->

<svg
   version="1.1"
   id="Capa_1"
   x="0px"
   y="0px"
   viewBox="0 0 512 512"
   xml:space="preserve"
   sodipodi:docname="cancel.svg"
   width="512"
   height="512"
   inkscape:version="1.1 (c68e22c387, 2021-05-23)"
   xmlns:inkscape="http://www.inkscape.org/namespaces/inkscape"
   xmlns:sodipodi="http://sodipodi.sourceforge.net/DTD/sodipodi-0.dtd"
   xmlns="http://www.w3.org/2000/svg"
   xmlns:svg="http://www.w3.org/2000/svg"><defs
   id="defs1095" /><sodipodi:namedview
   id="namedview1093"
   pagecolor="#ffffff"
   bordercolor="#666666"
   borderopacity="1.0"
   inkscape:pageshadow="2"
   inkscape:pageopacity="0.0"
   inkscape:pagecheckerboard="0"
   showgrid="false"
   fit-margin-top="0"
   fit-margin-left="0"
   fit-margin-right="0"
   fit-margin-bottom="0"
   inkscape:zoom="1.0195312"
   inkscape:cx="250.11495"
   inkscape:cy="339.86207"
   inkscape:window-width="1920"
   inkscape:window-height="1001"
   inkscape:window-x="-9"
   inkscape:window-y="-9"
   inkscape:window-maximized="1"
   inkscape:current-layer="Capa_1"
   showguides="true"
   inkscape:guide-bbox="true"><sodipodi:guide
     position="256,439.86969"
     orientation="-1,0"
     id="guide921"
     inkscape:label=""
     inkscape:locked="false"
     inkscape:color="rgb(0,0,255)" /><sodipodi:guide
     position="176.16441,256"
     orientation="0,1"
     id="guide923"
     inkscape:label=""
     inkscape:locked="false"
     inkscape:color="rgb(0,0,255)" /></sodipodi:namedview>
<g
   id="g1054"
   transform="matrix(1.3395557,0,0,1.2889836,-1.3871214,8.5151488)">
	<g
   id="g1052">
		<path
   d="m 368,176 c -8.832,0 -16,7.168 -16,16 0,88.224 -71.776,160 -160,160 C 103.776,352 32,280.224 32,192 32,103.776 103.776,32 192,32 c 42.952,0 83.272,16.784 113.536,47.264 6.224,6.264 16.36,6.304 22.624,0.08 6.272,-6.224 6.304,-16.36 0.08,-22.632 C 291.928,20.144 243.536,0 192,0 86.128,0 0,86.128 0,192 c 0,105.872 86.128,192 192,192 105.864,0 192,-86.128 192,-192 0,-8.832 -7.168,-16 -16,-16 z"
   id="path1050" />
	</g>
</g>
<g
   id="g1060"
   transform="matrix(1.3395557,0,0,1.2889836,-1.3871214,8.5151488)">
	<g
   id="g1058">
		<path
   d="m 214.624,192 36.688,-36.688 c 6.248,-6.248 6.248,-16.376 0,-22.624 -6.248,-6.248 -16.376,-6.248 -22.624,0 L 192,169.376 155.312,132.688 c -6.24,-6.248 -16.384,-6.248 -22.624,0 -6.248,6.248 -6.248,16.376 0,22.624 L 169.376,192 132.688,228.688 c -6.248,6.248 -6.248,16.376 0,22.624 3.12,3.128 7.216,4.688 11.312,4.688 4.096,0 8.192,-1.56 11.312,-4.688 L 192,214.624 l 36.688,36.688 c 3.128,3.128 7.216,4.688 11.312,4.688 4.096,0 8.184,-1.56 11.312,-4.688 6.248,-6.248 6.248,-16.376 0,-22.624 z"
   id="path1056" />
	</g>
</g>
<g
   id="g1062"
   transform="translate(0,-11.096971)">
</g>
<g
   id="g1064"
   transform="translate(0,-11.096971)">
</g>
<g
   id="g1066"
   transform="translate(0,-11.096971)">
</g>
<g
   id="g1068"
   transform="translate(0,-11.096971)">
</g>
<g
   id="g1070"
   transform="translate(0,-11.096971)">
</g>
<g
   id="g1072"
   transform="translate(0,-11.096971)">
</g>
<g
   id="g1074"
   transform="translate(0,-11.096971)">
</g>
<g
   id="g1076"
   transform="translate(0,-11.096971)">
</g>
<g
   id="g1078"
   transform="translate(0,-11.096971)">
</g>
<g
   id="g1080"
   transform="translate(0,-11.096971)">
</g>
<g
   id="g1082"
   transform="translate(0,-11.096971)">
</g>
<g
   id="g1084"
   transform="translate(0,-11.096971)">
</g>
<g
   id="g1086"
   transform="translate(0,-11.096971)">
</g>
<g
   id="g1088"
   transform="translate(0,-11.096971)">
</g>
<g
   id="g1090"
   transform="translate(0,-11.096971)">
</g>
</svg>
