<svg height="512pt" viewBox="0 0 512 512" width="512pt" xmlns="http://www.w3.org/2000/svg"><path d="m328.300781 128.53125h-144.601562c-30.417969 0-55.167969 24.75-55.167969 55.167969v144.601562c0 30.417969 24.75 55.167969 55.167969 55.167969h144.601562c30.421875 0 55.167969-24.75 55.167969-55.167969v-144.601562c0-30.417969-24.746094-55.167969-55.167969-55.167969zm25.167969 199.769531c0 13.875-11.289062 25.167969-25.167969 25.167969h-144.601562c-13.875 0-25.167969-11.292969-25.167969-25.167969v-144.601562c0-13.875 11.292969-25.167969 25.167969-25.167969h144.601562c13.878907 0 25.167969 11.292969 25.167969 25.167969zm0 0"/><path d="m497 202.71875c8.285156 0 15-6.71875 15-15 0-8.285156-6.714844-15-15-15h-49.265625v-38.285156h49.265625c8.285156 0 15-6.714844 15-15s-6.714844-15-15-15h-51.355469c-5.199219-18.375-19.699219-32.875-38.074219-38.078125v-51.355469c0-8.285156-6.71875-15-15-15-8.285156 0-15 6.714844-15 15v49.265625h-38.285156v-49.265625c0-8.285156-6.714844-15-15-15-8.28125 0-15 6.714844-15 15v49.265625h-38.28125v-49.265625c0-8.285156-6.71875-15-15-15-8.285156 0-15 6.714844-15 15v49.265625h-38.285156v-49.265625c0-8.285156-6.714844-15-15-15-8.28125 0-15 6.714844-15 15v49.265625h-38.285156v-49.265625c0-8.285156-6.714844-15-15-15-8.28125 0-15 6.714844-15 15v51.355469c-18.375 5.203125-32.875 19.699219-38.074219 38.078125h-51.359375c-8.285156 0-15 6.714844-15 15s6.714844 15 15 15h49.269531v38.28125h-49.269531c-8.285156 0-15 6.71875-15 15 0 8.285156 6.714844 15 15 15h49.269531v38.285156h-49.269531c-8.285156 0-15 6.714844-15 15s6.714844 15 15 15h49.269531v38.28125h-49.269531c-8.285156 0-15 6.71875-15 15 0 8.285156 6.714844 15 15 15h49.269531v38.285156h-49.269531c-8.285156 0-15 6.714844-15 15s6.714844 15 15 15h51.355469c5.203125 18.375 19.703125 32.875 38.078125 38.078125v51.355469c0 8.285156 6.714844 15 15 15s15-6.714844 15-15v-49.265625h38.285156v49.265625c0 8.285156 6.714844 15 15 15s15-6.714844 15-15v-49.265625h38.28125v49.265625c0 8.285156 6.71875 15 15 15 8.285156 0 15-6.714844 15-15v-49.265625h38.285156v49.265625c0 8.285156 6.714844 15 15 15 8.28125 0 15-6.714844 15-15v-49.265625h38.28125v49.265625c0 8.285156 6.714844 15 15 15s15-6.714844 15-15v-51.355469c18.375-5.203125 32.875-19.699219 38.078125-38.078125h51.355469c8.285156 0 15-6.714844 15-15s-6.714844-15-15-15h-49.265625v-38.28125h49.265625c8.285156 0 15-6.71875 15-15 0-8.285156-6.714844-15-15-15h-49.265625v-38.285156h49.265625c8.285156 0 15-6.714844 15-15s-6.714844-15-15-15h-49.265625v-38.28125zm-104.433594 215.015625h-273.132812c-13.875 0-25.164063-11.292969-25.164063-25.167969v-273.132812c0-13.875 11.289063-25.167969 25.164063-25.167969h273.136718c13.875 0 25.164063 11.292969 25.164063 25.167969v273.132812c0 13.875-11.289063 25.167969-25.167969 25.167969zm0 0"/></svg>