<?xml version="1.0" encoding="UTF-8" standalone="no"?>
<!-- Generator: Adobe Illustrator 19.0.0, SVG Export Plug-In . SVG Version: 6.00 Build 0)  -->

<svg
   version="1.1"
   id="Capa_1"
   x="0px"
   y="0px"
   viewBox="0 0 512 512"
   xml:space="preserve"
   sodipodi:docname="play.svg"
   width="512"
   height="512"
   inkscape:version="1.1 (c68e22c387, 2021-05-23)"
   xmlns:inkscape="http://www.inkscape.org/namespaces/inkscape"
   xmlns:sodipodi="http://sodipodi.sourceforge.net/DTD/sodipodi-0.dtd"
   xmlns="http://www.w3.org/2000/svg"
   xmlns:svg="http://www.w3.org/2000/svg"><defs
   id="defs1265" /><sodipodi:namedview
   id="namedview1263"
   pagecolor="#ffffff"
   bordercolor="#666666"
   borderopacity="1.0"
   inkscape:pageshadow="2"
   inkscape:pageopacity="0.0"
   inkscape:pagecheckerboard="0"
   showgrid="false"
   fit-margin-top="0"
   fit-margin-left="0"
   fit-margin-right="0"
   fit-margin-bottom="0"
   inkscape:zoom="1.5859375"
   inkscape:cx="256"
   inkscape:cy="256.31527"
   inkscape:window-width="1920"
   inkscape:window-height="1001"
   inkscape:window-x="-9"
   inkscape:window-y="-9"
   inkscape:window-maximized="1"
   inkscape:current-layer="Capa_1" />
<g
   id="g1230">
	<g
   id="g1228">
		<g
   id="g1226">
			<path
   d="M 437.02,74.98 C 388.667,26.629 324.38,0 256,0 187.62,0 123.333,26.629 74.98,74.98 26.629,123.333 0,187.62 0,256 0,324.38 26.629,388.667 74.98,437.02 123.333,485.371 187.62,512 256,512 c 46.813,0 92.617,-12.758 132.462,-36.893 9.447,-5.724 12.467,-18.022 6.744,-27.469 -5.724,-9.449 -18.023,-12.467 -27.469,-6.744 C 334.144,461.244 295.505,472 256,472 136.897,472 40,375.103 40,256 40,136.897 136.897,40 256,40 c 119.103,0 216,96.897 216,216 0,42.589 -12.665,84.044 -36.626,119.884 -6.139,9.182 -3.672,21.603 5.51,27.742 9.184,6.141 21.604,3.672 27.742,-5.51 C 497.002,355.674 512,306.53 512,256 512,187.62 485.371,123.333 437.02,74.98 Z"
   id="path1222" />
			<path
   d="m 234.665,151.423 c -14.087,-8.174 -30.922,-8.202 -45.032,-0.074 -14.163,8.155 -22.618,22.798 -22.618,39.169 v 130.965 c 0,16.371 8.455,31.014 22.618,39.169 7.034,4.052 14.742,6.076 22.452,6.076 7.757,0 15.516,-2.052 22.58,-6.151 L 347.512,295.095 C 361.593,286.924 370,272.309 370,256 c 0,-16.309 -8.407,-30.924 -22.488,-39.095 z m 92.771,109.074 -112.847,65.482 c -2.063,1.199 -3.855,0.665 -4.994,0.01 -1.178,-0.678 -2.58,-2.01 -2.58,-4.507 V 190.518 c 0,-2.497 1.402,-3.829 2.58,-4.507 0.646,-0.372 1.501,-0.703 2.496,-0.703 0.761,0 1.604,0.194 2.498,0.713 l 112.847,65.482 c 2.12,1.229 2.564,3.124 2.564,4.497 0,1.373 -0.444,3.268 -2.564,4.497 z"
   id="path1224" />
		</g>
	</g>
</g>
<g
   id="g1232">
</g>
<g
   id="g1234">
</g>
<g
   id="g1236">
</g>
<g
   id="g1238">
</g>
<g
   id="g1240">
</g>
<g
   id="g1242">
</g>
<g
   id="g1244">
</g>
<g
   id="g1246">
</g>
<g
   id="g1248">
</g>
<g
   id="g1250">
</g>
<g
   id="g1252">
</g>
<g
   id="g1254">
</g>
<g
   id="g1256">
</g>
<g
   id="g1258">
</g>
<g
   id="g1260">
</g>
</svg>
