<?xml version="1.0" encoding="iso-8859-1"?>
<!-- Generator: Adobe Illustrator 19.0.0, SVG Export Plug-In . SVG Version: 6.00 Build 0)  -->
<svg version="1.1" id="Capa_1" xmlns="http://www.w3.org/2000/svg" xmlns:xlink="http://www.w3.org/1999/xlink" x="0px" y="0px"
	 viewBox="0 0 511.999 511.999" style="enable-background:new 0 0 511.999 511.999;" xml:space="preserve">
<g>
	<g>
		<path d="M452.107,400.995c-5.523,0-10,4.478-10,10c0,17.154-13.956,31.111-31.111,31.111c-5.523,0-10,4.478-10,10s4.477,10,10,10
			c28.183,0,51.111-22.929,51.111-51.111C462.107,405.473,457.63,400.995,452.107,400.995z"/>
	</g>
</g>
<g>
	<g>
		<path d="M501.999,400.995c-5.523,0-10,4.478-10,10c0,44.664-36.337,81.002-81.002,81.002c-5.523,0-10,4.478-10,10
			c0,5.522,4.477,10,10,10c55.693,0,101.003-45.31,101.003-101.003C511.999,405.473,507.522,400.995,501.999,400.995z"/>
	</g>
</g>
<g>
	<g>
		<path d="M231.09,244.28l-50.894-50.895c-3.905-3.903-10.237-3.904-14.142,0c-3.905,3.905-3.905,10.237,0,14.143l50.894,50.895
			c1.953,1.952,4.512,2.929,7.071,2.929s5.119-0.977,7.071-2.929C234.995,254.518,234.996,248.186,231.09,244.28z"/>
	</g>
</g>
<g>
	<g>
		<path d="M256.532,269.722c-1.85-1.859-4.43-2.92-7.07-2.92c-2.63,0-5.21,1.061-7.07,2.92c-1.86,1.86-2.93,4.44-2.93,7.08
			c0,2.63,1.07,5.21,2.93,7.07s4.44,2.93,7.07,2.93c2.64,0,5.22-1.069,7.07-2.93c1.87-1.86,2.93-4.44,2.93-7.07
			C259.462,274.162,258.402,271.582,256.532,269.722z"/>
	</g>
</g>
<g>
	<g>
		<path d="M310.633,186.967c5.667,5.666,13.2,8.787,21.214,8.787c8.014,0,15.547-3.121,21.214-8.787l90.511-90.512
			c5.667-5.666,8.787-13.199,8.787-21.214s-3.121-15.548-8.787-21.215L398.32,8.772c-11.696-11.695-30.729-11.694-42.427,0
			L265.38,99.284c-5.666,5.667-8.786,13.2-8.786,21.215s3.121,15.547,8.786,21.214l15.556,15.556l-13.91,13.91l-54.18-54.181
			c-9.203-9.202-21.439-14.271-34.453-14.271s-25.251,5.068-34.453,14.271l-26.941,26.941c-9.202,9.203-14.27,21.439-14.27,34.453
			s5.068,25.249,14.27,34.452l54.182,54.182l-13.91,13.91l-15.556-15.556c-11.697-11.697-30.73-11.697-42.428,0L8.773,355.891
			c-11.697,11.697-11.697,30.73,0,42.428l45.256,45.256c5.849,5.849,13.531,8.772,21.214,8.772c7.682,0,15.365-2.924,21.214-8.772
			l90.512-90.512c11.697-11.697,11.697-30.73,0-42.428l-15.556-15.556l13.91-13.91l54.181,54.182
			c9.202,9.202,21.439,14.271,34.453,14.271c3.637,0,7.209-0.41,10.675-1.181c-7.251,28.958,0.412,60.916,23.013,83.516
			c1.953,1.952,4.512,2.929,7.071,2.929c2.559,0,5.119-0.977,7.071-2.929l48.013-48.013l9.999,9.999
			c1.953,1.952,4.512,2.929,7.071,2.929s5.119-0.977,7.071-2.929c3.905-3.905,3.905-10.237,0-14.143l-10-9.999l47.827-47.827
			c3.905-3.905,3.905-10.237,0-14.143c-16.577-16.577-38.619-25.708-62.064-25.708c-7.271,0-14.405,0.882-21.286,2.588
			c0.783-3.49,1.198-7.089,1.198-10.753c0-13.015-5.068-25.25-14.27-34.453l-54.181-54.181l13.91-13.91L310.633,186.967z
			 M338.92,172.824c-1.889,1.889-4.399,2.93-7.071,2.93c-2.671,0-5.182-1.041-7.071-2.93l-15.556-15.556l25.456-25.456
			l22.628,22.628L338.92,172.824z M371.448,140.297L348.82,117.67l25.457-25.456l22.627,22.628L371.448,140.297z M429.434,68.169
			c1.888,1.89,2.928,4.4,2.928,7.072c0,2.671-1.04,5.182-2.929,7.07l-18.385,18.385L388.42,78.069l25.457-25.457L429.434,68.169z
			 M370.034,22.914c1.95-1.949,4.51-2.924,7.071-2.924c2.561,0,5.122,0.975,7.071,2.924l15.556,15.556l-25.457,25.457
			l-22.628-22.629L370.034,22.914z M337.506,55.442l22.628,22.629l-25.456,25.456L312.05,80.899L337.506,55.442z M113.427,279.523
			c1.949-1.949,4.51-2.925,7.071-2.925c2.561,0,5.122,0.976,7.071,2.925l15.556,15.556l-25.456,25.456l-22.628-22.628
			L113.427,279.523z M80.899,312.05l22.628,22.628L78.07,360.134l-22.628-22.628L80.899,312.05z M22.914,384.177
			c-3.899-3.898-3.899-10.243,0-14.141L41.3,351.65l22.628,22.627l-25.457,25.457L22.914,384.177z M82.313,429.433
			c-3.898,3.898-10.243,3.898-14.142,0l-15.556-15.556l25.457-25.457l22.628,22.628L82.313,429.433z M114.841,396.905
			l-22.628-22.628l25.457-25.457l22.628,22.628L114.841,396.905z M172.824,324.779c3.901,3.898,3.901,10.243,0.001,14.141
			l-18.385,18.386l-22.628-22.628l25.456-25.456L172.824,324.779z M369.707,302.122c14.724,0,28.731,4.663,40.334,13.293
			l-94.812,94.812c-8.629-11.603-13.292-25.61-13.292-40.334c0-18.102,7.049-35.12,19.85-47.92
			C334.586,309.171,351.604,302.122,369.707,302.122z M321.206,253.646c5.425,5.425,8.413,12.638,8.413,20.311
			c0,7.672-2.987,14.884-8.413,20.31l-26.94,26.941c-5.425,5.425-12.638,8.413-20.311,8.413c-7.672,0-14.884-2.989-20.31-8.414
			L131.14,198.701c-11.199-11.198-11.199-29.421,0-40.619l26.941-26.941c5.425-5.425,12.637-8.413,20.31-8.413
			s14.885,2.988,20.311,8.413l61.25,61.25c0.001,0.001,0.002,0.002,0.002,0.003c0,0.001,0.002,0.001,0.003,0.002L321.206,253.646z
			 M279.521,127.568c-1.888-1.888-2.928-4.399-2.928-7.07c0-2.672,1.04-5.183,2.929-7.071l18.384-18.385l22.628,22.628
			l-25.456,25.457L279.521,127.568z"/>
	</g>
</g>
<g>
	<g>
		<path d="M416.696,402.545c-1.87-1.86-4.44-2.92-7.08-2.92c-2.63,0-5.2,1.06-7.07,2.92c-1.86,1.87-2.93,4.44-2.93,7.08
			c0,2.63,1.07,5.2,2.93,7.07c1.87,1.86,4.44,2.93,7.07,2.93c2.64,0,5.21-1.07,7.08-2.93c1.86-1.87,2.93-4.44,2.93-7.07
			C419.626,406.985,418.556,404.415,416.696,402.545z"/>
	</g>
</g>
<g>
</g>
<g>
</g>
<g>
</g>
<g>
</g>
<g>
</g>
<g>
</g>
<g>
</g>
<g>
</g>
<g>
</g>
<g>
</g>
<g>
</g>
<g>
</g>
<g>
</g>
<g>
</g>
<g>
</g>
</svg>
